<?xml version="1.0" standalone="no"?>
<!DOCTYPE svg PUBLIC "-//W3C//DTD SVG 20010904//EN"
 "http://www.w3.org/TR/2001/REC-SVG-20010904/DTD/svg10.dtd">
<svg version="1.0" xmlns="http://www.w3.org/2000/svg"
 width="816.000000pt" height="142.000000pt" viewBox="0 0 816.000000 142.000000"
 preserveAspectRatio="xMidYMid meet">
<metadata>
Created by potrace 1.15, written by Peter Selinger 2001-2017
</metadata>
<g transform="translate(0.000000,142.000000) scale(0.100000,-0.100000)"
fill="#000000" stroke="none">
<path d="M40 716 l0 -676 60 0 60 0 0 275 0 275 183 0 183 0 155 -275 154
-275 73 0 c72 0 73 0 61 23 -6 12 -79 140 -161 285 -83 145 -148 265 -146 266
1 2 23 10 47 20 148 57 234 194 233 366 0 176 -82 298 -241 362 -53 21 -72 23
-358 26 l-303 3 0 -675z m565 549 c77 -20 132 -58 170 -120 26 -42 30 -60 34
-131 4 -103 -15 -165 -67 -218 -71 -74 -97 -81 -354 -84 l-228 -3 0 285 0 286
193 0 c140 0 209 -4 252 -15z"/>
<path d="M3050 715 l0 -675 60 0 60 0 0 675 0 675 -60 0 -60 0 0 -675z"/>
<path d="M3810 715 l0 -675 60 0 60 0 0 565 c0 311 3 565 8 565 4 0 185 -254
402 -563 l395 -562 63 -3 62 -3 0 676 0 675 -60 0 -60 0 0 -560 c0 -308 -4
-560 -8 -560 -5 0 -186 252 -402 560 l-393 560 -64 0 -63 0 0 -675z"/>
<path d="M1402 1019 c-109 -21 -221 -113 -277 -226 -57 -116 -71 -296 -35
-438 42 -164 137 -267 285 -310 88 -26 250 -17 327 18 73 33 150 104 183 170
39 79 36 87 -33 87 -57 0 -58 -1 -70 -34 -18 -49 -100 -120 -159 -137 -26 -8
-81 -13 -121 -13 -171 3 -292 124 -303 304 l-4 55 363 3 362 2 0 78 c0 307
-226 499 -518 441z m234 -127 c84 -43 142 -134 160 -249 l7 -43 -303 0 -303 0
6 49 c12 105 98 222 188 254 63 23 190 18 245 -11z"/>
<path d="M2363 1020 c-138 -29 -252 -138 -265 -255 -3 -30 -3 -30 54 -33 l56
-3 12 37 c20 59 84 121 143 139 104 31 213 16 274 -38 52 -46 73 -98 73 -184
l0 -71 -107 -7 c-281 -17 -369 -35 -451 -94 -79 -58 -113 -182 -80 -295 19
-63 108 -147 181 -170 84 -26 213 -19 288 15 55 26 129 89 161 139 16 24 17
22 17 -67 l1 -93 55 0 55 0 0 370 c0 348 -1 372 -21 424 -25 67 -102 142 -175
170 -56 21 -206 30 -271 16z m347 -583 c0 -95 -22 -157 -73 -210 -66 -67 -126
-91 -227 -92 -99 0 -146 19 -193 77 -58 72 -39 190 36 237 59 36 187 56 385
60 l72 1 0 -73z"/>
<path d="M5382 1020 c-203 -43 -332 -238 -332 -499 0 -160 36 -269 119 -363
85 -95 188 -133 350 -126 93 4 114 8 173 36 80 39 158 119 182 188 9 26 16 51
16 56 0 4 -27 8 -59 8 -56 0 -60 -1 -69 -29 -16 -45 -77 -107 -130 -129 -148
-64 -321 -18 -401 106 -29 46 -60 153 -61 210 l0 22 366 0 367 0 -6 98 c-6
120 -25 182 -79 262 -44 67 -128 130 -197 150 -52 15 -189 21 -239 10z m239
-132 c24 -15 56 -39 71 -55 35 -36 74 -125 83 -185 l6 -48 -304 0 -304 0 8 48
c19 101 56 165 123 217 57 44 102 56 192 52 65 -3 89 -8 125 -29z"/>
<path d="M7620 1016 c-133 -39 -213 -122 -227 -234 -7 -64 10 -120 53 -170 50
-59 110 -86 286 -133 169 -44 202 -59 236 -110 19 -27 23 -43 19 -82 -9 -96
-81 -148 -214 -155 -99 -5 -157 9 -207 50 -37 30 -76 94 -76 123 0 12 -13 15
-64 15 l-64 0 9 -41 c22 -96 85 -170 184 -216 51 -23 76 -28 168 -31 144 -6
224 18 302 90 69 63 89 112 83 207 -7 135 -74 188 -308 246 -80 20 -168 47
-196 61 -125 60 -120 198 10 266 61 32 183 32 249 -1 52 -25 92 -74 108 -133
l10 -38 54 0 55 0 0 33 c0 84 -97 203 -196 241 -63 23 -212 30 -274 12z"/>
<path d="M5990 1000 c0 -8 91 -333 256 -908 l15 -52 64 0 64 0 25 82 c14 46
68 226 120 402 52 175 97 320 99 322 2 2 58 -177 124 -399 l120 -402 66 -3
c56 -2 66 0 71 15 25 88 266 944 266 948 0 3 -27 5 -60 5 l-59 0 -10 -37 c-6
-21 -54 -206 -108 -410 -53 -205 -99 -373 -102 -373 -3 0 -37 107 -75 238 -38
130 -91 315 -119 410 l-50 172 -63 0 c-62 0 -63 0 -73 -32 -5 -18 -58 -199
-117 -403 -58 -203 -109 -376 -113 -383 -6 -10 -77 249 -214 781 l-9 37 -59 0
c-33 0 -59 -4 -59 -10z"/>
</g>
</svg>
